<?xml version="1.0" encoding="UTF-8"?>
<svg width="173px" height="48px" viewBox="0 0 173 48" version="1.1" xmlns="http://www.w3.org/2000/svg" xmlns:xlink="http://www.w3.org/1999/xlink">
    <!-- Generator: Sketch 52.5 (67469) - http://www.bohemiancoding.com/sketch -->
    <title>OpenEdge Logo</title>
    <desc>Created with Sketch.</desc>
    <g id="Page-1" stroke="none" stroke-width="1" fill="none" fill-rule="evenodd">
        <g id="2" transform="translate(-13.000000, -15.000000)">
            <g id="白色底" transform="translate(13.000000, 15.000000)">
                <g id="Group-13" fill-rule="nonzero">
                    <g id="Group-8-Copy-2">
                        <ellipse id="Oval-3" fill="#4B93FF" cx="16.086" cy="16.3334769" rx="16.086" ry="16.3334769"></ellipse>
                        <circle id="Oval-3-Copy" fill="#4B93FF" cx="33.84" cy="39.12" r="4.56"></circle>
                        <circle id="Oval-3-Copy-2" fill="#4B93FF" cx="41.04" cy="4.56" r="4.56"></circle>
                        <circle id="Oval-3-Copy-3" fill="#4B93FF" cx="43.44" cy="21.36" r="4.56"></circle>
                        <circle id="Oval-3-Copy-4" fill="#4B93FF" cx="16.08" cy="43.44" r="4.56"></circle>
                        <path d="M16.32,3.36 L16.32,42.72" id="Path-4" stroke="#4B93FF" stroke-width="1.2"></path>
                        <path d="M16.32,5.28 L33.12,39.36" id="Path-4-Copy" stroke="#4B93FF" stroke-width="1.2"></path>
                        <path d="M16.5594746,5.23085824 C16.5594746,5.23085824 25.1196497,10.6872388 42.24,21.6" id="Path-4-Copy-2" stroke="#4B93FF" stroke-width="1.2"></path>
                        <path d="M16.32,4.8 L42.24,4.8" id="Path-4-Copy-3" stroke="#4B93FF" stroke-width="1.2"></path>
                    </g>
                </g>
                <path d="M66.1739867,16 C70.753251,16 74.3479734,19.6470588 74.3479734,24.2588235 C74.3479734,28.8470588 70.753251,32.4705882 66.1739867,32.4705882 C61.5947224,32.4705882 58,28.8470588 58,24.2588235 C58,19.6470588 61.5947224,16 66.1739867,16 Z M66.1739867,28.9176471 C68.6696857,28.9176471 70.5700804,26.9411765 70.5700804,24.2588235 C70.5700804,21.5529412 68.6696857,19.5529412 66.1739867,19.5529412 C63.6782877,19.5529412 61.777893,21.5529412 61.777893,24.2588235 C61.777893,26.9411765 63.6782877,28.9176471 66.1739867,28.9176471 Z M83.7125688,19.9529412 C86.7577795,19.9529412 89.3221675,22.4941176 89.3221675,26.2117647 C89.3221675,29.9529412 86.7577795,32.4705882 83.7125688,32.4705882 C82.2243079,32.4705882 81.0336992,32 80.1407427,31.1764706 L80.1407427,37.3447059 C80.1407427,37.5766655 79.9527023,37.7647059 79.7207427,37.7647059 L76.8973313,37.7647059 C76.6653717,37.7647059 76.4773313,37.5766655 76.4773313,37.3447059 L76.4773313,20.7258824 C76.4773313,20.4939228 76.6653717,20.3058824 76.8973313,20.3058824 L79.7207427,20.3058824 C79.9527023,20.3058824 80.1407427,20.4939228 80.1407427,20.7258824 L80.1407427,21.2470588 C81.0336992,20.4235294 82.2243079,19.9529412 83.7125688,19.9529412 Z M82.9569902,29.2705882 C84.5597327,29.2705882 85.7274451,28.0470588 85.7274451,26.2117647 C85.7274451,24.4 84.5597327,23.1529412 82.9569902,23.1529412 C81.4687293,23.1529412 80.1407427,24.4 80.1407427,26.2117647 C80.1407427,28.0470588 81.4687293,29.2705882 82.9569902,29.2705882 Z M102.457024,26.1411765 C102.457024,26.4449558 102.457024,26.6727903 102.457024,26.82468 C102.457024,26.9184141 102.457024,27.1058824 102.176105,27.1058824 C100.348737,27.1058824 97.6635729,27.1058824 94.1206128,27.1058824 C94.0236956,27.1058824 94.0859438,27.333729 94.0922103,27.3562646 C94.4435849,28.6198675 95.342431,29.3882353 96.5039803,29.3882353 C97.3244397,29.3882353 98.2737526,29.1896108 98.8943492,28.1297765 C98.9145485,28.0952808 98.932447,28.063358 98.9949454,28.0484084 C99.0574439,28.0334588 99.1361772,28.0617871 99.1708544,28.0690649 C99.8158882,28.2044396 102.031525,28.6694402 102.031525,28.6694402 C102.218314,28.6694402 102.126797,28.8967624 102.106581,28.9429674 C101.085769,31.2760922 99.0522083,32.4 96.5039803,32.4 C93.1840137,32.4 90.4364552,29.8823529 90.4364552,26.1411765 C90.4364552,22.4235294 93.1840137,19.8823529 96.5268766,19.8823529 C99.7781542,19.8823529 102.388335,22.2823529 102.457024,26.1411765 Z M96.557405,23.0117647 C95.5690967,23.0117647 94.5597217,23.6179391 94.175914,24.7264577 C94.1649748,24.7580525 94.1317465,24.8705882 94.2382684,24.8705882 C95.2530071,24.8705882 96.7471176,24.8705882 98.7205999,24.8705882 C98.8550395,24.8705882 98.8356835,24.7503158 98.8166326,24.6925222 C98.4383486,23.5449444 97.5601369,23.0117647 96.557405,23.0117647 Z M173,26.1411765 C173,26.4449558 173,26.6727903 173,26.82468 C173,26.9184141 173,27.1058824 172.719081,27.1058824 C170.891713,27.1058824 168.206549,27.1058824 164.663589,27.1058824 C164.566672,27.1058824 164.62892,27.333729 164.635186,27.3562646 C164.986561,28.6198675 165.885407,29.3882353 167.046956,29.3882353 C167.867416,29.3882353 168.816729,29.1896108 169.437325,28.1297765 C169.457525,28.0952808 169.475423,28.063358 169.537922,28.0484084 C169.60042,28.0334588 169.679153,28.0617871 169.713831,28.0690649 C170.358864,28.2044396 172.574501,28.6694402 172.574501,28.6694402 C172.76129,28.6694402 172.669773,28.8967624 172.649557,28.9429674 C171.628745,31.2760922 169.595184,32.4 167.046956,32.4 C163.72699,32.4 160.979431,29.8823529 160.979431,26.1411765 C160.979431,22.4235294 163.72699,19.8823529 167.069853,19.8823529 C170.32113,19.8823529 172.931311,22.2823529 173,26.1411765 Z M167.100381,23.0117647 C166.112073,23.0117647 165.102698,23.6179391 164.71889,24.7264577 C164.707951,24.7580525 164.674723,24.8705882 164.781245,24.8705882 C165.795983,24.8705882 167.290094,24.8705882 169.263576,24.8705882 C169.398016,24.8705882 169.37866,24.7503158 169.359609,24.6925222 C168.981325,23.5449444 168.103113,23.0117647 167.100381,23.0117647 Z M111.577392,19.9529412 C114.256261,19.9529412 116.042174,21.9058824 116.042174,24.8705882 L116.042174,31.6976471 C116.042174,31.9296067 115.854134,32.1176471 115.622174,32.1176471 L112.821659,32.1176471 C112.5897,32.1176471 112.401659,31.9296067 112.401659,31.6976471 L112.401659,25.6705882 C112.401659,24.2823529 111.600288,23.3411765 110.432576,23.3411765 C108.990108,23.3411765 108.051358,24.3529412 108.051358,26.6352941 L108.051358,31.6976471 C108.051358,31.9296067 107.863318,32.1176471 107.631358,32.1176471 L104.807947,32.1176471 C104.575987,32.1176471 104.387947,31.9296067 104.387947,31.6976471 L104.387947,20.7258824 C104.387947,20.4939228 104.575987,20.3058824 104.807947,20.3058824 L107.631358,20.3058824 C107.863318,20.3058824 108.051358,20.4939228 108.051358,20.7258824 L108.051358,21.4352941 C108.921419,20.4941176 110.134924,19.9529412 111.577392,19.9529412 Z M130.489753,28.9313919 L130.489753,31.6976471 C130.489753,31.9296067 130.301713,32.1176471 130.069753,32.1176471 L118.957873,32.1176471 C118.725914,32.1176471 118.537873,31.9296067 118.537873,31.6976471 L118.537873,16.7729412 C118.537873,16.5409816 118.725914,16.3529412 118.957873,16.3529412 L130.001064,16.3529412 C130.233024,16.3529412 130.421064,16.5409816 130.421064,16.7729412 L130.421064,19.4624264 C130.421064,19.6168872 130.363684,19.6941176 130.248924,19.6941176 C130.248924,19.6941176 127.570629,19.6941176 122.542631,19.6941176 C122.391388,19.6941176 122.315766,19.7505435 122.315766,19.8633953 L122.315766,22.3401799 C122.315766,22.552609 122.444771,22.6588235 122.702779,22.6588235 C122.702779,22.6588235 124.970467,22.6588235 129.505844,22.6588235 C129.673329,22.6588235 129.757071,22.7741688 129.757071,23.0048593 L129.757071,25.5812569 C129.757071,25.7349288 129.683461,25.8117647 129.536241,25.8117647 C129.536241,25.8117647 127.231682,25.8117647 122.622563,25.8117647 C122.521408,25.8117647 122.315766,25.8117647 122.315766,26.095427 C122.315766,26.2748055 122.315766,27.0881199 122.315766,28.5353705 C122.315766,28.7764706 122.526882,28.7764706 122.630859,28.7764706 C127.758646,28.7764706 130.322539,28.7764706 130.322539,28.7764706 C130.434015,28.7764706 130.489753,28.828111 130.489753,28.9313919 Z M144.937332,14.42 L144.937332,31.6976471 C144.937332,31.9296067 144.749292,32.1176471 144.517332,32.1176471 L141.693921,32.1176471 C141.461961,32.1176471 141.273921,31.9296067 141.273921,31.6976471 L141.273921,31.1764706 C140.380964,32 139.190355,32.4705882 137.702094,32.4705882 C134.656884,32.4705882 132.092496,29.9529412 132.092496,26.2117647 C132.092496,22.4941176 134.656884,19.9529412 137.702094,19.9529412 C139.190355,19.9529412 140.380964,20.4235294 141.273921,21.2470588 L141.273921,14.42 C141.273921,14.1880404 141.461961,14 141.693921,14 L144.517332,14 C144.749292,14 144.937332,14.1880404 144.937332,14.42 Z M138.457673,29.2705882 C139.945934,29.2705882 141.273921,28.0470588 141.273921,26.2117647 C141.273921,24.4 139.945934,23.1529412 138.457673,23.1529412 C136.854931,23.1529412 135.687218,24.4 135.687218,26.2117647 C135.687218,28.0470588 136.854931,29.2705882 138.457673,29.2705882 Z M159.682563,20.7258824 L159.682563,32.3529412 C159.682563,36 156.660248,38 152.928148,38 C150.515469,38 148.641055,37.2097892 147.481051,35.6112659 C147.375085,35.4652408 147.183799,35.1834939 147.482033,34.9623184 C147.482033,34.9623184 149.953807,33.3969796 149.959087,33.3928847 C150.15773,33.2388187 150.324146,33.3442692 150.37224,33.4013579 C151.152431,34.3274563 151.806672,34.6823529 152.928148,34.6823529 C154.576683,34.6823529 156.019151,33.8352941 156.019151,31.9764706 L156.019151,31.1764706 C155.126195,32 153.935586,32.4705882 152.447325,32.4705882 C149.402115,32.4705882 146.837727,29.9529412 146.837727,26.2117647 C146.837727,22.4941176 149.402115,19.9529412 152.447325,19.9529412 C153.935586,19.9529412 155.126195,20.4235294 156.019151,21.2470588 L156.019151,20.7258824 C156.019151,20.4939228 156.207192,20.3058824 156.439151,20.3058824 L159.262563,20.3058824 C159.494522,20.3058824 159.682563,20.4939228 159.682563,20.7258824 Z M153.202904,29.2705882 C154.691165,29.2705882 156.019151,28.0470588 156.019151,26.2117647 C156.019151,24.4 154.691165,23.1529412 153.202904,23.1529412 C151.600161,23.1529412 150.432449,24.4 150.432449,26.2117647 C150.432449,28.0470588 151.600161,29.2705882 153.202904,29.2705882 Z" id="OpenEdge-Copy-4" fill="#666666"></path>
            </g>
        </g>
    </g>
</svg>
